<?xml version="1.0" encoding="UTF-8" standalone="no"?>
<!-- Created with Inkscape (http://www.inkscape.org/) -->

<svg
   xmlns:dc="http://purl.org/dc/elements/1.1/"
   xmlns:cc="http://creativecommons.org/ns#"
   xmlns:rdf="http://www.w3.org/1999/02/22-rdf-syntax-ns#"
   xmlns:svg="http://www.w3.org/2000/svg"
   xmlns="http://www.w3.org/2000/svg"
   xmlns:sodipodi="http://sodipodi.sourceforge.net/DTD/sodipodi-0.dtd"
   xmlns:inkscape="http://www.inkscape.org/namespaces/inkscape"
   id="svg3023"
   version="1.1"
   inkscape:version="0.48.2 r9819"
   width="220"
   height="70"
   xml:space="preserve"
   sodipodi:docname="Newark.svg"
   inkscape:export-filename="/tmp/Newark.png"
   inkscape:export-xdpi="90"
   inkscape:export-ydpi="90"><metadata
     id="metadata3029"><rdf:RDF><cc:Work
         rdf:about=""><dc:format>image/svg+xml</dc:format><dc:type
           rdf:resource="http://purl.org/dc/dcmitype/StillImage" /><dc:title></dc:title></cc:Work></rdf:RDF></metadata><defs
     id="defs3027"><clipPath
       clipPathUnits="userSpaceOnUse"
       id="clipPath3037"><path
         d="m 114.21,873.9 -99.207,0 0,-858.897 99.207,0 0,858.897 z"
         id="path3039"
         inkscape:connector-curvature="0" /></clipPath><clipPath
       clipPathUnits="userSpaceOnUse"
       id="clipPath3051"><path
         d="m 15.003,15.003 612.279,0 0,858.894 -612.279,0 0,-858.894 z"
         id="path3053"
         inkscape:connector-curvature="0" /></clipPath><clipPath
       clipPathUnits="userSpaceOnUse"
       id="clipPath3139"><path
         d="m 411.345,55.395 47.754,0 0,17.631 -47.754,0 0,-17.631 z"
         id="path3141"
         inkscape:connector-curvature="0" /></clipPath><clipPath
       clipPathUnits="userSpaceOnUse"
       id="clipPath3199"><path
         d="m 465.381,55.395 50.904,0 0,17.631 -50.904,0 0,-17.631 z"
         id="path3201"
         inkscape:connector-curvature="0" /></clipPath><clipPath
       clipPathUnits="userSpaceOnUse"
       id="clipPath3255"><path
         d="m 522.576,55.395 64.314,0 0,17.631 -64.314,0 0,-17.631 z"
         id="path3257"
         inkscape:connector-curvature="0" /></clipPath><clipPath
       clipPathUnits="userSpaceOnUse"
       id="clipPath3415"><path
         d="m 15.003,15.003 612.279,0 0,858.894 -612.279,0 0,-858.894 z"
         id="path3417"
         inkscape:connector-curvature="0" /></clipPath><clipPath
       clipPathUnits="userSpaceOnUse"
       id="clipPath3425"><path
         d="m 441.234,713.826 148.914,0 0,123.876 -148.914,0 0,-123.876 z"
         id="path3427"
         inkscape:connector-curvature="0" /></clipPath><clipPath
       clipPathUnits="userSpaceOnUse"
       id="clipPath3439"><path
         d="m 15.003,15.003 612.279,0 0,858.894 -612.279,0 0,-858.894 z"
         id="path3441"
         inkscape:connector-curvature="0" /></clipPath><clipPath
       clipPathUnits="userSpaceOnUse"
       id="clipPath3637"><path
         d="m 0,0 642.284,0 0,888.898 L 0,888.898 0,0 z"
         id="path3639"
         inkscape:connector-curvature="0" /></clipPath><clipPath
       clipPathUnits="userSpaceOnUse"
       id="clipPath3255-5"><path
         inkscape:connector-curvature="0"
         d="m 522.576,55.395 64.314,0 0,17.631 -64.314,0 0,-17.631 z"
         id="path3257-5" /></clipPath><clipPath
       clipPathUnits="userSpaceOnUse"
       id="clipPath3199-8"><path
         inkscape:connector-curvature="0"
         d="m 465.381,55.395 50.904,0 0,17.631 -50.904,0 0,-17.631 z"
         id="path3201-9" /></clipPath><clipPath
       clipPathUnits="userSpaceOnUse"
       id="clipPath3139-6"><path
         inkscape:connector-curvature="0"
         d="m 411.345,55.395 47.754,0 0,17.631 -47.754,0 0,-17.631 z"
         id="path3141-0" /></clipPath><clipPath
       clipPathUnits="userSpaceOnUse"
       id="clipPath3051-0"><path
         inkscape:connector-curvature="0"
         d="m 15.003,15.003 612.279,0 0,858.894 -612.279,0 0,-858.894 z"
         id="path3053-7" /></clipPath><clipPath
       clipPathUnits="userSpaceOnUse"
       id="clipPath3255-5-7"><path
         inkscape:connector-curvature="0"
         d="m 522.576,55.395 64.314,0 0,17.631 -64.314,0 0,-17.631 z"
         id="path3257-5-0" /></clipPath><clipPath
       clipPathUnits="userSpaceOnUse"
       id="clipPath3199-8-8"><path
         inkscape:connector-curvature="0"
         d="m 465.381,55.395 50.904,0 0,17.631 -50.904,0 0,-17.631 z"
         id="path3201-9-6" /></clipPath></defs><sodipodi:namedview
     pagecolor="#ffffff"
     bordercolor="#666666"
     borderopacity="1"
     objecttolerance="10"
     gridtolerance="10"
     guidetolerance="10"
     inkscape:pageopacity="0"
     inkscape:pageshadow="2"
     inkscape:window-width="1485"
     inkscape:window-height="876"
     id="namedview3025"
     showgrid="false"
     fit-margin-top="0"
     fit-margin-left="0"
     fit-margin-right="0"
     fit-margin-bottom="0"
     inkscape:zoom="3.6794912"
     inkscape:cx="73.870123"
     inkscape:cy="1.2959394"
     inkscape:window-x="115"
     inkscape:window-y="0"
     inkscape:window-maximized="1"
     inkscape:current-layer="g3031" /><g
     id="g3031"
     inkscape:groupmode="layer"
     inkscape:label="premier_farnell_pledge"
     transform="matrix(1.25,0,0,-1.25,-42.043192,1093.5908)"><g
       transform="matrix(3.1431715,0,0,3.1431715,-1421.1377,645.05353)"
       id="g3195"><g
         id="g3197"
         clip-path="url(#clipPath3199-8-8)"><g
           id="g3203"
           transform="translate(516.2892,57.0295)"><path
             inkscape:connector-curvature="0"
             d="m 0,0 c 0,-0.904 -0.733,-1.636 -1.636,-1.636 l -47.639,0 c -0.904,0 -1.636,0.732 -1.636,1.636 l 0,14.357 c 0,0.903 0.732,1.636 1.636,1.636 l 47.639,0 C -0.733,15.993 0,15.26 0,14.357 L 0,0 z"
             style="fill:#ffffff;fill-opacity:1;fill-rule:nonzero;stroke:none"
             id="path3205" /></g><g
           id="g3207"
           transform="translate(516.011,57.0765)"><path
             inkscape:connector-curvature="0"
             d="m 0,0 c 0,-0.804 -0.651,-1.456 -1.455,-1.456 l -47.443,0 c -0.805,0 -1.457,0.652 -1.457,1.456 l 0,14.262 c 0,0.805 0.652,1.457 1.457,1.457 l 47.443,0 C -0.651,15.719 0,15.067 0,14.262 L 0,0 z"
             style="fill:#acbd0c;fill-opacity:1;fill-rule:nonzero;stroke:none"
             id="path3209" /></g><g
           id="g3211"
           transform="translate(488.0162,61.5482)"><path
             inkscape:connector-curvature="0"
             d="m 0,0 -2.163,3.403 c -0.131,0.202 -0.318,0.527 -0.403,0.667 0,-0.202 0.008,-0.954 0.008,-1.256 l 0,-2.814 -0.791,0 0,5.426 0.829,0 2.063,-3.31 c 0.139,-0.225 0.372,-0.628 0.449,-0.767 0,0.201 -0.007,0.977 -0.007,1.278 l 0,2.799 0.791,0 L 0.776,0 0,0 z"
             style="fill:#ffffff;fill-opacity:1;fill-rule:nonzero;stroke:none"
             id="path3213" /></g><g
           id="g3215"
           transform="translate(491.6213,64.9823)"><path
             inkscape:connector-curvature="0"
             d="m 0,0 c -0.535,0 -0.861,-0.372 -0.931,-1.023 l 1.892,0 C 0.922,-0.465 0.659,0 0,0 m 1.744,-1.683 -2.69,0 c 0.085,-0.782 0.527,-1.116 1.023,-1.116 0.342,0 0.613,0.124 0.884,0.326 L 1.434,-2.985 C 1.077,-3.326 0.651,-3.52 0.031,-3.52 c -0.954,0 -1.76,0.768 -1.76,2.117 0,1.38 0.729,2.124 1.782,2.124 1.156,0 1.714,-0.938 1.714,-2.039 0,-0.147 -0.015,-0.279 -0.023,-0.365"
             style="fill:#ffffff;fill-opacity:1;fill-rule:nonzero;stroke:none"
             id="path3217" /></g><g
           id="g3219"
           transform="translate(497.9391,61.5482)"><path
             inkscape:connector-curvature="0"
             d="M 0,0 -0.682,0 -1.233,2.054 C -1.317,2.364 -1.404,2.729 -1.442,2.923 -1.481,2.729 -1.566,2.356 -1.651,2.047 L -2.194,0 l -0.682,0 -1.117,4.07 0.791,0 0.481,-1.977 c 0.077,-0.31 0.163,-0.697 0.201,-0.891 0.047,0.201 0.14,0.573 0.226,0.891 l 0.542,1.977 0.643,0 0.551,-1.984 c 0.085,-0.319 0.171,-0.683 0.217,-0.884 0.047,0.201 0.124,0.581 0.202,0.891 l 0.48,1.977 0.791,0 L 0,0 z"
             style="fill:#ffffff;fill-opacity:1;fill-rule:nonzero;stroke:none"
             id="path3221" /></g><g
           id="g3223"
           transform="translate(502.0334,63.2848)"><path
             inkscape:connector-curvature="0"
             d="m 0,0 c -0.217,0.108 -0.496,0.178 -0.93,0.178 -0.512,0 -0.838,-0.232 -0.838,-0.605 0,-0.403 0.256,-0.674 0.783,-0.674 0.427,0 0.798,0.264 0.985,0.519 L 0,0 z m 0,-1.737 0,0.403 c -0.28,-0.279 -0.674,-0.488 -1.117,-0.488 -0.658,0 -1.411,0.371 -1.411,1.372 0,0.907 0.698,1.318 1.621,1.318 0.38,0 0.682,-0.055 0.907,-0.155 l 0,0.303 c 0,0.441 -0.271,0.689 -0.768,0.689 -0.418,0 -0.744,-0.078 -1.062,-0.255 l -0.31,0.604 c 0.388,0.24 0.822,0.365 1.396,0.365 0.907,0 1.527,-0.443 1.527,-1.365 l 0,-2.791 -0.783,0 z"
             style="fill:#ffffff;fill-opacity:1;fill-rule:nonzero;stroke:none"
             id="path3225" /></g><g
           id="g3227"
           transform="translate(506.173,64.773)"><path
             inkscape:connector-curvature="0"
             d="m 0,0 c -0.171,0.093 -0.349,0.147 -0.612,0.147 -0.504,0 -0.799,-0.356 -0.799,-1.046 l 0,-2.326 -0.799,0 0,4.07 0.799,0 0,-0.388 c 0.186,0.272 0.527,0.473 0.93,0.473 0.326,0 0.528,-0.062 0.69,-0.17 L 0,0 z"
             style="fill:#ffffff;fill-opacity:1;fill-rule:nonzero;stroke:none"
             id="path3229" /></g><g
           id="g3231"
           transform="translate(509.5219,61.5482)"><path
             inkscape:connector-curvature="0"
             d="M 0,0 -0.899,2.023 -1.52,1.202 -1.52,0 l -0.798,0 0,5.232 0.798,0.419 0,-2.566 c 0,-0.248 -0.007,-0.667 -0.007,-0.868 0.108,0.162 0.318,0.473 0.45,0.667 l 0.845,1.186 0.907,0 L -0.356,2.705 0.869,0 0,0 z"
             style="fill:#ffffff;fill-opacity:1;fill-rule:nonzero;stroke:none"
             id="path3233" /></g><g
           id="g3235"
           transform="translate(474.9625,59.666)"><path
             inkscape:connector-curvature="0"
             d="M 0,0 C -3.038,0.888 -5.886,3.284 -5.747,5.27 -5.62,7.077 -3.534,7.949 -1.024,7.801 -4.15,8.326 -6.386,7.08 -6.436,5.06 -6.494,2.775 -3.322,-0.085 0.001,-1.136 L 0,0 z"
             style="fill:#ffffff;fill-opacity:1;fill-rule:nonzero;stroke:none"
             id="path3237" /></g><g
           id="g3239"
           transform="translate(474.9898,61.4344)"><path
             inkscape:connector-curvature="0"
             d="M 0,0 C 0,0 -1.974,1.019 -2.741,1.627 -2.237,1.346 0,0.429 0,0.429 l 0,0.374 c 0,0 -1.824,0.907 -2.835,1.674 C -1.516,1.814 0,1.243 0,1.243 l -0.001,0.402 c 0,0 -1.515,0.626 -2.88,1.599 1.617,-0.795 2.88,-1.112 2.88,-1.112 l 0,0.378 C -3.039,3.397 -4.892,5.262 -5.093,6.604 -5.356,8.373 -3.535,8.73 -1.026,8.583 -4.151,9.109 -6.492,8.663 -6.492,5.97 -6.492,3.683 -3.324,0.787 0,-0.262 L 0,0 z"
             style="fill:#374004;fill-opacity:1;fill-rule:nonzero;stroke:none"
             id="path3241" /></g><g
           id="g3243"
           transform="translate(475.001,68.4748)"><path
             inkscape:connector-curvature="0"
             d="M 0,0 C 3.039,-0.889 5.887,-3.284 5.747,-5.27 5.62,-7.077 3.535,-7.949 1.025,-7.802 4.151,-8.326 6.386,-7.081 6.438,-5.06 6.494,-2.775 3.323,0.085 -0.001,1.135 L 0,0 z"
             style="fill:#ffffff;fill-opacity:1;fill-rule:nonzero;stroke:none"
             id="path3245" /></g><g
           id="g3247"
           transform="translate(474.9743,66.7058)"><path
             inkscape:connector-curvature="0"
             d="M 0,0 C 0,0 1.974,-1.018 2.741,-1.626 2.236,-1.345 0,-0.429 0,-0.429 l 0,-0.375 c 0,0 1.824,-0.906 2.834,-1.672 C 1.516,-1.814 0,-1.242 0,-1.242 l 0,-0.403 c 0,0 1.516,-0.626 2.881,-1.598 C 1.264,-2.449 0,-2.132 0,-2.132 L 0,-2.509 C 3.039,-3.398 4.892,-5.262 5.093,-6.603 5.356,-8.372 3.535,-8.729 1.025,-8.582 4.151,-9.107 6.491,-8.662 6.491,-5.968 6.491,-3.684 3.322,-0.787 0,0.263 L 0,0 z"
             style="fill:#374004;fill-opacity:1;fill-rule:nonzero;stroke:none"
             id="path3249" /></g></g></g></g></svg>