<?xml version="1.0" encoding="UTF-8" standalone="no"?>
<!-- Uploaded to: SVG Repo, www.svgrepo.com, Generator: SVG Repo Mixer Tools -->

<svg
   width="800px"
   height="800px"
   viewBox="0 -201.4 490.41 490.41"
   version="1.1"
   id="svg6"
   sodipodi:docname="windows-10-logo-svgrepo-com.svg"
   inkscape:version="1.2.2 (b0a8486541, 2022-12-01)"
   xmlns:inkscape="http://www.inkscape.org/namespaces/inkscape"
   xmlns:sodipodi="http://sodipodi.sourceforge.net/DTD/sodipodi-0.dtd"
   xmlns="http://www.w3.org/2000/svg"
   xmlns:svg="http://www.w3.org/2000/svg">
  <defs
     id="defs10" />
  <sodipodi:namedview
     id="namedview8"
     pagecolor="#ffffff"
     bordercolor="#666666"
     borderopacity="1.0"
     inkscape:showpageshadow="2"
     inkscape:pageopacity="0.0"
     inkscape:pagecheckerboard="0"
     inkscape:deskcolor="#d1d1d1"
     showgrid="false"
     inkscape:zoom="1.005"
     inkscape:cx="400.49751"
     inkscape:cy="241.29353"
     inkscape:window-width="1920"
     inkscape:window-height="979"
     inkscape:window-x="0"
     inkscape:window-y="32"
     inkscape:window-maximized="1"
     inkscape:current-layer="g4" />
  <g
     fill="#00adef"
     id="g4">
    <path
       d="M 40,6.91 C 55.75,4.5 71.53,2.23 87.31,0.04 c 0.01,13.83 0,27.65 0.01,41.48 C 71.55,41.58 55.78,41.82 40,41.87 39.99,30.21 39.99,18.56 40,6.91 Z M 0,12.49 c 11.86,-1.83 23.771,-3.41 35.681,-4.9 0.01,11.47 0.01,22.93 0.02,34.4 C 23.801,41.98 11.9,42.16 0,42.13 Z m 0,33.25 c 11.891,-0.04 23.78,0.15 35.67,0.13 0,11.5 0.03,23 0.011,34.5 C 23.801,78.609 11.9,77.07 0,75.46 Z m 39.93,0.46 h 47.38 c 0.02,13.79 0,27.58 0,41.38 C 71.56,85.22 55.78,83.03 40,80.891 39.98,69.33 39.95,57.77 39.93,46.2 Z"
       id="path2"
       sodipodi:nodetypes="cccccccccccccccccccc" />
  </g>
</svg>
